<svg width="37" height="37" viewBox="0 0 37 37" fill="none" xmlns="http://www.w3.org/2000/svg">
<path d="M6.16667 15.4167H10.7917V20.0417H6.16667V15.4167ZM13.875 20.0417H18.5V15.4167H13.875V20.0417ZM6.16667 27.75H10.7917V23.125H6.16667V27.75ZM13.875 27.75H18.5V23.125H13.875V27.75ZM6.16667 12.3333H10.7917V7.70833H6.16667V12.3333ZM13.875 12.3333H18.5V7.70833H13.875V12.3333ZM37 13.1042V37H0V5.39583C0 3.96477 0.568488 2.59232 1.5804 1.5804C2.59232 0.568488 3.96477 0 5.39583 0L19.2708 0C20.7019 0 22.0743 0.568488 23.0863 1.5804C24.0982 2.59232 24.6667 3.96477 24.6667 5.39583V7.70833H31.6042C33.0352 7.70833 34.4077 8.27682 35.4196 9.28874C36.4315 10.3007 37 11.6731 37 13.1042ZM20.0417 5.39583C20.0417 5.1914 19.9605 4.99533 19.8159 4.85077C19.6713 4.70621 19.4753 4.625 19.2708 4.625H5.39583C5.1914 4.625 4.99533 4.70621 4.85077 4.85077C4.70621 4.99533 4.625 5.1914 4.625 5.39583V32.375H20.0417V5.39583ZM32.375 13.1042C32.375 12.8997 32.2938 12.7037 32.1492 12.5591C32.0047 12.4145 31.8086 12.3333 31.6042 12.3333H24.6667V32.375H32.375V13.1042ZM26.2083 20.0417H30.8333V15.4167H26.2083V20.0417ZM26.2083 27.75H30.8333V23.125H26.2083V27.75Z" fill="#0084FF"/>
</svg>
