<svg width="37" height="37" viewBox="0 0 37 37" fill="none" xmlns="http://www.w3.org/2000/svg">
<path d="M35.4554 10.7879H33.9137C33.061 10.7879 32.3719 10.0988 32.3719 9.24615C32.3719 8.39353 33.061 7.70435 33.9137 7.70435H35.4554C36.3081 7.70435 36.9972 8.39353 36.9972 9.24615C36.9972 10.0988 36.3081 10.7879 35.4554 10.7879ZM30.6481 22.7939C31.3204 22.2681 31.4375 21.2999 30.9118 20.6308L29.7046 19.089C29.1788 18.4167 28.209 18.298 27.5414 18.8253C26.8692 19.3511 26.752 20.3193 27.2778 20.9885L28.485 22.5303C28.7887 22.9188 29.242 23.1223 29.6999 23.1223C30.033 23.1223 30.3675 23.0159 30.6481 22.7939ZM35.44 16.9412C35.8579 16.1996 35.5958 15.2576 34.8541 14.8413L33.485 14.0704C32.7419 13.6495 31.8014 13.9162 31.3851 14.6563C30.9673 15.3979 31.2294 16.3399 31.971 16.7562L33.3401 17.5271C33.5791 17.6628 33.8396 17.726 34.0956 17.726C34.6352 17.726 35.1563 17.4423 35.44 16.9412ZM28.0564 14.533L28.7563 13.1854C29.3314 12.0753 29.4363 10.8126 29.0508 9.62389C28.6654 8.43516 27.8374 7.47462 26.7782 6.94733L17.2823 1.67902C11.1984 -1.48321 6.62696 0.524211 4.44532 2.00125C3.52487 2.62259 3.01607 3.65405 3.08391 4.75952C3.15021 5.85111 3.77155 6.80086 4.74288 7.30348L21.8522 16.5203C22.5198 16.8611 23.2336 17.023 23.9398 17.023C25.6142 17.023 27.2346 16.1118 28.0564 14.533ZM9.49932 13.3689L0.478279 30.3148C-0.636439 32.5581 0.26397 35.321 2.48724 36.4773C3.15638 36.8258 3.88256 37 4.61337 37C5.09596 37 5.58162 36.9245 6.05495 36.7703C7.24368 36.3817 8.20576 35.5507 8.74076 34.4699L17.6338 17.7507L9.49932 13.3689Z" fill="#0084FF"/>
</svg>
