<svg width="37" height="37" viewBox="0 0 37 37" fill="none" xmlns="http://www.w3.org/2000/svg">
<path d="M11.5625 20.0417C10.1904 20.0417 8.8491 19.6348 7.70823 18.8725C6.56737 18.1102 5.67817 17.0267 5.15309 15.759C4.628 14.4914 4.49062 13.0965 4.7583 11.7507C5.02599 10.405 5.68672 9.16884 6.65695 8.19862C7.62717 7.22839 8.86332 6.56766 10.2091 6.29997C11.5548 6.03229 12.9497 6.16967 14.2174 6.69476C15.485 7.21984 16.5685 8.10904 17.3308 9.2499C18.0931 10.3908 18.5 11.7321 18.5 13.1042C18.498 14.9435 17.7664 16.7069 16.4658 18.0075C15.1652 19.3081 13.4018 20.0396 11.5625 20.0417ZM21.5833 37H1.54167C1.13279 37 0.740662 36.8376 0.451544 36.5485C0.162425 36.2593 0 35.8672 0 35.4583V34.6875C0 31.6209 1.21819 28.68 3.38658 26.5116C5.55497 24.3432 8.49593 23.125 11.5625 23.125C14.6291 23.125 17.57 24.3432 19.7384 26.5116C21.9068 28.68 23.125 31.6209 23.125 34.6875V35.4583C23.125 35.8672 22.9626 36.2593 22.6735 36.5485C22.3843 36.8376 21.9922 37 21.5833 37ZM26.9792 13.875C25.6071 13.875 24.2658 13.4681 23.1249 12.7058C21.984 11.9435 21.0948 10.86 20.5698 9.59237C20.0447 8.32471 19.9073 6.92981 20.175 5.58406C20.4427 4.23832 21.1034 3.00218 22.0736 2.03195C23.0438 1.06172 24.28 0.40099 25.6257 0.133305C26.9715 -0.13438 28.3664 0.00300592 29.634 0.528089C30.9017 1.05317 31.9852 1.94237 32.7475 3.08323C33.5098 4.2241 33.9167 5.5654 33.9167 6.9375C33.9146 8.77682 33.1831 10.5402 31.8825 11.8408C30.5819 13.1414 28.8185 13.873 26.9792 13.875ZM24.7885 16.9907C23.3526 17.1834 21.972 17.6704 20.7331 18.4215C19.4942 19.1725 18.4238 20.1712 17.5889 21.3552C21.0436 22.9241 23.758 25.7678 25.1646 29.2917H35.4583C35.8672 29.2917 36.2593 29.1292 36.5485 28.8401C36.8376 28.551 37 28.1589 37 27.75V27.6914C36.9984 26.1547 36.669 24.636 36.0338 23.2367C35.3986 21.8374 34.4721 20.5897 33.3164 19.5769C32.1606 18.5642 30.8021 17.8096 29.3315 17.3636C27.8609 16.9176 26.3121 16.7905 24.7885 16.9907Z" fill="#0084FF"/>
</svg>
