<svg width="18" height="19" viewBox="0 0 18 19" fill="none" xmlns="http://www.w3.org/2000/svg">
<g clip-path="url(#clip0_1699_7455)">
<path d="M17.85 9.10858C17.7525 8.84683 15.375 2.70508 9 2.70508C2.625 2.70508 0.2445 8.84683 0.15 9.10858L0 9.50008L0.15 9.89158C0.2475 10.1533 2.625 16.2951 9 16.2951C15.375 16.2951 17.7555 10.1533 17.85 9.89158L18 9.50008L17.85 9.10858ZM9 14.0638C4.9365 14.0638 2.96925 10.6783 2.4075 9.50008C2.97075 8.31883 4.93875 4.93633 9 4.93633C13.0612 4.93633 15.0285 8.31808 15.5925 9.50008C15.0285 10.6821 13.0612 14.0638 9 14.0638Z" fill="#FAFDFE"/>
<path d="M9 12.5C10.6569 12.5 12 11.1569 12 9.5C12 7.84315 10.6569 6.5 9 6.5C7.34315 6.5 6 7.84315 6 9.5C6 11.1569 7.34315 12.5 9 12.5Z" fill="#FAFDFE"/>
</g>
<defs>
<clipPath id="clip0_1699_7455">
<rect width="18" height="18" fill="white" transform="translate(0 0.5)"/>
</clipPath>
</defs>
</svg>
