<svg width="154" height="46" viewBox="0 0 154 46" fill="none" xmlns="http://www.w3.org/2000/svg">
<g clip-path="url(#clip0_822_4215)">
<path d="M152.103 40.1751C152.103 42.5544 150.16 44.4815 147.758 44.4815H5.58629C3.18521 44.4815 1.23633 42.5544 1.23633 40.1751V5.83258C1.23633 3.45447 3.1853 1.52051 5.58629 1.52051H147.757C150.16 1.52051 152.102 3.45447 152.102 5.83258L152.103 40.1751Z" fill="white"/>
<path d="M147.758 45.4831H5.58559C2.63154 45.4831 0.227051 43.1028 0.227051 40.1748V5.83344C0.227051 2.90326 2.63154 0.519531 5.58559 0.519531H147.756C150.707 0.519531 153.115 2.90326 153.115 5.83344V40.1748C153.117 43.1028 150.709 45.4831 147.758 45.4831Z" fill="#A6A6A6"/>
<path d="M152.103 40.1751C152.103 42.5544 150.16 44.4815 147.758 44.4815H5.58629C3.18521 44.4815 1.23633 42.5544 1.23633 40.1751V5.83258C1.23633 3.45447 3.1853 1.52051 5.58629 1.52051H147.757C150.16 1.52051 152.102 3.45447 152.102 5.83258L152.103 40.1751Z" fill="black"/>
<path d="M34.3665 22.7655C34.3336 19.1415 37.3568 17.3785 37.495 17.2964C35.7829 14.8193 33.1292 14.4809 32.1966 14.4539C29.9678 14.2212 27.8058 15.7773 26.6704 15.7773C25.5123 15.7773 23.7639 14.4764 21.8795 14.5146C19.4546 14.5517 17.1862 15.9449 15.942 18.1082C13.3744 22.5192 15.2893 29.0014 17.7494 32.5668C18.9799 34.3142 20.4179 36.2627 22.2999 36.1941C24.1412 36.1199 24.829 35.0304 27.0511 35.0304C29.2527 35.0304 29.8986 36.1942 31.8181 36.1503C33.7943 36.1199 35.0384 34.3962 36.226 32.6343C37.6481 30.634 38.2191 28.6618 38.2418 28.5606C38.1964 28.5449 34.405 27.1079 34.3665 22.7655ZM30.7405 12.1084C31.7307 10.8794 32.4084 9.20746 32.2203 7.51074C30.7868 7.57371 28.9943 8.49459 27.9619 9.69657C27.0486 10.7558 26.2328 12.4918 26.4436 14.1245C28.0538 14.2436 29.707 13.3183 30.7405 12.1084Z" fill="white"/>
<path d="M147.758 0.519531H71.606L101.433 45.4831H147.758C150.708 45.4831 153.116 43.1028 153.116 40.1714V5.83344C153.117 2.90326 150.709 0.519531 147.758 0.519531Z" fill="url(#paint0_linear_822_4215)"/>
<path d="M61.0363 35.9407H58.463L57.0534 31.5454H52.1537L50.8109 35.9407H48.3057L53.1611 20.9772H56.1593L61.0363 35.9407ZM56.6286 29.7014L55.3538 25.7941C55.2189 25.3949 54.9651 24.4549 54.5934 22.9752H54.5481C54.3986 23.6116 54.1595 24.5516 53.832 25.7941L52.5788 29.7014H56.6286ZM73.4985 30.4131C73.4985 32.2481 72.9965 33.6986 71.9913 34.7635C71.0917 35.7113 69.9733 36.1848 68.6396 36.1848C67.1994 36.1848 66.1637 35.6753 65.5348 34.6545V40.3158H63.119V28.6973C63.119 27.5447 63.0885 26.363 63.0296 25.1509H65.1542L65.289 26.8612H65.3342C66.1399 25.5726 67.3625 24.9282 69.0033 24.9282C70.286 24.9282 71.3568 25.4308 72.2134 26.4372C73.0689 27.4458 73.4985 28.7704 73.4985 30.4131ZM71.0373 30.5008C71.0373 29.4506 70.7993 28.5849 70.3211 27.9023C69.7987 27.1929 69.0973 26.8376 68.218 26.8376C67.622 26.8376 67.0804 27.0354 66.5965 27.4256C66.1116 27.8191 65.7943 28.333 65.6459 28.9694C65.5712 29.2662 65.5338 29.508 65.5338 29.6992V31.4993C65.5338 32.283 65.7763 32.9454 66.2612 33.4873C66.7462 34.027 67.3762 34.2979 68.1513 34.2979C69.0613 34.2979 69.7695 33.9483 70.2759 33.2545C70.7834 32.5585 71.0373 31.641 71.0373 30.5008ZM86.0047 30.4131C86.0047 32.2481 85.5027 33.6986 84.4976 34.7635C83.5968 35.7113 82.4795 36.1848 81.1447 36.1848C79.7045 36.1848 78.6688 35.6753 78.04 34.6545V40.3158H75.6241V28.6973C75.6241 27.5447 75.5935 26.363 75.5346 25.1509H77.6592L77.7941 26.8612H77.8394C78.6439 25.5726 79.8666 24.9282 81.5084 24.9282C82.7899 24.9282 83.8607 25.4308 84.7197 26.4372C85.5742 27.4458 86.0047 28.7704 86.0047 30.4131ZM83.5424 30.5008C83.5424 29.4506 83.3034 28.5849 82.8251 27.9023C82.3028 27.1929 81.6036 26.8376 80.7243 26.8376C80.1283 26.8376 79.5867 27.0354 79.1006 27.4256C78.6156 27.8191 78.2995 28.333 78.151 28.9694C78.0774 29.2662 78.0377 29.508 78.0377 29.6992V31.4993C78.0377 32.283 78.2813 32.9454 78.764 33.4873C79.249 34.0259 79.879 34.2979 80.6563 34.2979C81.5673 34.2979 82.2755 33.9483 82.7809 33.2545C83.2886 32.5585 83.5424 31.641 83.5424 30.5008ZM99.9874 31.7433C99.9874 33.0172 99.5387 34.0528 98.647 34.8523C97.6657 35.7248 96.2958 36.1622 94.5394 36.1622C92.9167 36.1622 91.6159 35.8518 90.6346 35.2301L91.1933 33.232C92.2527 33.8549 93.4164 34.1653 94.6833 34.1653C95.5943 34.1653 96.3025 33.9606 96.8079 33.5547C97.3143 33.1477 97.5705 32.6035 97.5705 31.9243C97.5705 31.3161 97.3586 30.8067 96.9427 30.3919C96.5246 29.9781 95.8334 29.5924 94.8624 29.2382C92.2221 28.2611 90.9009 26.832 90.9009 24.952C90.9009 23.7242 91.3678 22.719 92.2993 21.933C93.2307 21.1482 94.4658 20.7559 96.0023 20.7559C97.3745 20.7559 98.5179 20.9931 99.4255 21.4665L98.8193 23.4206C97.9649 22.9618 97.0005 22.7325 95.9218 22.7325C95.0698 22.7325 94.4011 22.9405 93.9229 23.3542C93.5207 23.7242 93.3167 24.1752 93.3167 24.7103C93.3167 25.3007 93.5491 25.7909 94.0113 26.1755C94.4125 26.5296 95.1445 26.9153 96.2028 27.3291C97.5014 27.8486 98.4553 28.4535 99.0662 29.1484C99.6815 29.8431 99.9874 30.71 99.9874 31.7433ZM107.995 26.95H105.332V32.1886C105.332 33.521 105.802 34.1855 106.742 34.1855C107.174 34.1855 107.532 34.1494 107.815 34.0742L107.882 35.8946C107.406 36.0712 106.779 36.1599 106.003 36.1599C105.049 36.1599 104.303 35.871 103.765 35.293C103.229 34.7151 102.96 33.747 102.96 32.3842V26.9455H101.373V25.1464H102.96V23.1709L105.332 22.4603V25.1464H107.995V26.95ZM119.986 30.457C119.986 32.1154 119.508 33.477 118.554 34.5419C117.555 35.6382 116.227 36.1847 114.572 36.1847C112.974 36.1847 111.704 35.6596 110.757 34.6105C109.809 33.5591 109.336 32.2347 109.336 30.6369C109.336 28.9648 109.825 27.5954 110.801 26.5306C111.779 25.4647 113.095 24.9318 114.751 24.9318C116.346 24.9318 117.628 25.4579 118.598 26.5081C119.525 27.5268 119.986 28.8423 119.986 30.457ZM117.482 30.5121C117.482 29.5236 117.267 28.6758 116.835 27.9663C116.328 27.1096 115.603 26.6813 114.664 26.6813C113.696 26.6813 112.954 27.1096 112.448 27.9663C112.016 28.6758 111.8 29.5383 111.8 30.557C111.8 31.5465 112.016 32.3965 112.448 33.1038C112.971 33.9606 113.699 34.389 114.643 34.389C115.567 34.389 116.291 33.9516 116.814 33.0825C117.259 32.3561 117.482 31.5027 117.482 30.5121ZM127.842 27.2592C127.603 27.2152 127.347 27.1928 127.08 27.1928C126.231 27.1928 125.573 27.5099 125.111 28.1485C124.71 28.7107 124.508 29.4213 124.508 30.2792V35.9406H122.092V28.5489C122.092 27.3064 122.069 26.173 122.022 25.1521H124.127L124.215 27.2164H124.282C124.538 26.507 124.939 25.9346 125.49 25.5062C126.028 25.1206 126.609 24.9282 127.236 24.9282C127.459 24.9282 127.661 24.944 127.84 24.9722L127.842 27.2592ZM138.646 30.0353C138.646 30.4649 138.618 30.8268 138.558 31.1226H131.31C131.338 32.1886 131.689 33.0049 132.362 33.5671C132.973 34.0686 133.762 34.3204 134.732 34.3204C135.805 34.3204 136.784 34.1518 137.665 33.8111L138.043 35.474C137.014 35.9193 135.8 36.1408 134.398 36.1408C132.712 36.1408 131.389 35.6482 130.425 34.6656C129.464 33.6818 128.983 32.3595 128.983 30.7032C128.983 29.0773 129.431 27.7224 130.327 26.6419C131.265 25.4883 132.533 24.9114 134.129 24.9114C135.696 24.9114 136.882 25.4882 137.688 26.6419C138.326 27.556 138.646 28.6894 138.646 30.0353ZM136.343 29.4135C136.36 28.7018 136.201 28.089 135.873 27.5707C135.455 26.9028 134.812 26.5699 133.949 26.5699C133.16 26.5699 132.516 26.8949 132.026 27.547C131.624 28.0654 131.385 28.6883 131.312 29.4113L136.343 29.4135Z" fill="white"/>
<path d="M55.4639 15.6216H54.1981L53.5058 13.4616H51.0979L50.4373 15.6216H49.2056L51.5919 8.26691H53.065L55.4639 15.6216ZM53.2973 12.5554L52.6707 10.6349C52.6049 10.4381 52.4837 9.9805 52.2967 9.24964H52.2741C52.197 9.56559 52.0871 10.0243 51.9217 10.6349L51.3064 12.5554H53.2973ZM61.4308 10.3189L59.4071 15.6216H58.2523L56.2944 10.3189H57.5703L58.4836 13.1232C58.6377 13.5921 58.7691 14.0396 58.8677 14.4646H58.9006C58.989 14.0834 59.1204 13.6359 59.2847 13.1232L60.1867 10.3189H61.4308ZM65.739 15.6216L65.6506 15.011H65.6176C65.255 15.5023 64.727 15.7418 64.0563 15.7418C63.0998 15.7418 62.4177 15.0762 62.4177 14.1812C62.4177 12.8724 63.561 12.1955 65.5406 12.1955V12.0976C65.5406 11.3994 65.1667 11.0497 64.4301 11.0497C63.902 11.0497 63.4398 11.1813 63.0341 11.4432L62.7927 10.6685C63.2878 10.3627 63.9032 10.2098 64.6295 10.2098C66.0255 10.2098 66.7303 10.9406 66.7303 12.4035V14.3566C66.7303 14.8918 66.7529 15.3067 66.8073 15.6226L65.739 15.6216ZM65.5735 12.9804C64.2535 12.9804 63.594 13.2975 63.594 14.0497C63.594 14.6063 63.935 14.8784 64.4076 14.8784C65.0125 14.8784 65.5735 14.4207 65.5735 13.799V12.9804ZM69.3752 9.44528C68.9797 9.44528 68.6715 9.13945 68.6715 8.73579C68.6715 8.33213 68.99 8.03754 69.3978 8.03754C69.8046 8.03754 70.1344 8.33213 70.1231 8.73579C70.1231 9.16193 69.816 9.44528 69.3752 9.44528ZM69.9916 15.6216H68.8041V10.3189H69.9916V15.6216ZM73.289 15.6216H72.1015V7.88574H73.289V15.6216ZM78.3359 15.6216L78.2474 15.011H78.2147C77.8521 15.5023 77.324 15.7418 76.6532 15.7418C75.6969 15.7418 75.0147 15.0762 75.0147 14.1812C75.0147 12.8724 76.1579 12.1955 78.1375 12.1955V12.0976C78.1375 11.3994 77.7636 11.0497 77.0271 11.0497C76.499 11.0497 76.0367 11.1813 75.631 11.4432L75.3886 10.6674C75.8838 10.3616 76.4991 10.2087 77.2254 10.2087C78.6215 10.2087 79.3262 10.9395 79.3262 12.4024V14.3554C79.3262 14.8907 79.3501 15.3056 79.4022 15.6215L78.3359 15.6216ZM78.1705 12.9804C76.8504 12.9804 76.1909 13.2975 76.1909 14.0497C76.1909 14.6063 76.5319 14.8784 77.0044 14.8784C77.6095 14.8784 78.1705 14.4207 78.1705 13.799V12.9804ZM84.1376 15.7419C83.3795 15.7419 82.8197 15.4248 82.4571 14.803H82.4333L82.3653 15.6216H81.3534C81.3863 15.1966 81.3976 14.7153 81.3976 14.1925V7.88574H82.5863V11.0948H82.6089C82.9612 10.5056 83.5314 10.211 84.3131 10.211C85.6004 10.211 86.5023 11.3028 86.5023 12.8949C86.5023 14.5411 85.5006 15.7419 84.1376 15.7419ZM83.8961 11.1364C83.2129 11.1364 82.5875 11.7256 82.5875 12.5441V13.4718C82.5875 14.2026 83.1494 14.803 83.8758 14.803C84.7653 14.803 85.2945 14.0834 85.2945 12.9377C85.2933 11.8684 84.7426 11.1364 83.8961 11.1364ZM89.445 15.6216H88.2588V7.88574H89.445V15.6216ZM95.9096 13.2536H92.3448C92.3686 14.2577 93.037 14.8244 94.0274 14.8244C94.5554 14.8244 95.0393 14.7367 95.4676 14.5737L95.6523 15.3922C95.1469 15.6104 94.5532 15.7194 93.8608 15.7194C92.1883 15.7194 91.1991 14.6715 91.1991 13.0467C91.1991 11.4209 92.2122 10.1986 93.7271 10.1986C95.0904 10.1986 95.9492 11.2027 95.9492 12.7195C95.9537 12.9264 95.9435 13.1119 95.9096 13.2536ZM94.8206 12.4137C94.8206 11.5951 94.4024 11.0172 93.6433 11.0172C92.961 11.0172 92.424 11.6064 92.3447 12.4137H94.8206ZM103.107 15.7419C101.546 15.7419 100.534 14.5849 100.534 13.0141C100.534 11.377 101.567 10.2099 103.197 10.2099C104.734 10.2099 105.77 11.3118 105.77 12.9275C105.77 14.5849 104.703 15.7419 103.107 15.7419ZM103.152 11.0712C102.295 11.0712 101.745 11.8672 101.745 12.9804C101.745 14.0722 102.306 14.8683 103.141 14.8683C103.976 14.8683 104.536 14.0171 104.536 12.9579C104.537 11.8785 103.988 11.0712 103.152 11.0712ZM112.154 15.6216H110.968V12.5767C110.968 11.639 110.605 11.169 109.89 11.169C109.186 11.169 108.701 11.7694 108.701 12.4677V15.6216H107.515V11.8346C107.515 11.3658 107.503 10.8631 107.471 10.3178H108.516L108.571 11.1364H108.604C108.921 10.5697 109.572 10.2087 110.297 10.2087C111.418 10.2087 112.154 11.0599 112.154 12.4452L112.154 15.6216ZM119.924 11.2027H118.617V13.7776C118.617 14.4331 118.847 14.7603 119.309 14.7603C119.518 14.7603 119.695 14.7378 119.837 14.7052L119.869 15.6002C119.638 15.688 119.329 15.7318 118.947 15.7318C118.011 15.7318 117.452 15.2191 117.452 13.8765V11.2027H116.673V10.3189H117.452V9.34746L118.617 8.99777V10.3178H119.924V11.2027ZM126.213 15.6216H125.024V12.5992C125.024 11.6502 124.661 11.1701 123.946 11.1701C123.331 11.1701 122.76 11.585 122.76 12.4249V15.6216H121.571V7.88574H122.76V11.0712H122.783C123.157 10.4932 123.696 10.2087 124.388 10.2087C125.52 10.2087 126.213 11.0813 126.213 12.4677V15.6216ZM132.281 13.2536H128.717C128.74 14.2577 129.408 14.8244 130.399 14.8244C130.928 14.8244 131.41 14.7367 131.839 14.5737L132.025 15.3922C131.519 15.6104 130.924 15.7194 130.232 15.7194C128.56 15.7194 127.57 14.6715 127.57 13.0467C127.57 11.4209 128.583 10.1986 130.098 10.1986C131.462 10.1986 132.32 11.2027 132.32 12.7195C132.325 12.9264 132.313 13.1119 132.281 13.2536ZM131.192 12.4137C131.192 11.5951 130.775 11.0172 130.015 11.0172C129.332 11.0172 128.795 11.6064 128.717 12.4137H131.192Z" fill="white"/>
</g>
<defs>
<linearGradient id="paint0_linear_822_4215" x1="112.362" y1="45.6053" x2="112.362" y2="5.07522" gradientUnits="userSpaceOnUse">
<stop stop-color="#1A1A1A" stop-opacity="0.1"/>
<stop offset="0.123" stop-color="#212121" stop-opacity="0.151"/>
<stop offset="0.308" stop-color="#353535" stop-opacity="0.227"/>
<stop offset="0.532" stop-color="#575757" stop-opacity="0.318"/>
<stop offset="0.783" stop-color="#858585" stop-opacity="0.421"/>
<stop offset="1" stop-color="#B3B3B3" stop-opacity="0.51"/>
</linearGradient>
<clipPath id="clip0_822_4215">
<rect width="152.889" height="44.9674" fill="white" transform="translate(0.227539 0.516602)"/>
</clipPath>
</defs>
</svg>
