<svg width="42" height="42" viewBox="0 0 42 42" fill="none" xmlns="http://www.w3.org/2000/svg">
<rect width="42" height="42" rx="21" fill="#D9D9D9"/>
<path d="M29.6464 7.41162H12.3523C10.7148 7.41358 9.14488 8.06495 7.98699 9.22283C6.82911 10.3807 6.17774 11.9506 6.17578 13.5881L6.17578 28.4116C6.17774 30.0491 6.82911 31.619 7.98699 32.7769C9.14488 33.9348 10.7148 34.5861 12.3523 34.5881H29.6464C31.2839 34.5861 32.8537 33.9348 34.0116 32.7769C35.1695 31.619 35.8209 30.0491 35.8228 28.4116V13.5881C35.8209 11.9506 35.1695 10.3807 34.0116 9.22283C32.8537 8.06495 31.2839 7.41358 29.6464 7.41162ZM12.3523 9.88221H29.6464C30.386 9.88366 31.1084 10.1064 31.7204 10.5218C32.3324 10.9373 32.8061 11.5263 33.0805 12.2132L23.6206 21.6743C22.9244 22.3677 21.9819 22.757 20.9993 22.757C20.0167 22.757 19.0742 22.3677 18.378 21.6743L8.91813 12.2132C9.19255 11.5263 9.66624 10.9373 10.2783 10.5218C10.8903 10.1064 11.6126 9.88366 12.3523 9.88221ZM29.6464 32.1175H12.3523C11.3694 32.1175 10.4268 31.7271 9.7318 31.0321C9.03681 30.3371 8.64637 29.3945 8.64637 28.4116V15.441L16.6313 23.421C17.7908 24.5776 19.3616 25.2271 20.9993 25.2271C22.637 25.2271 24.2078 24.5776 25.3673 23.421L33.3523 15.441V28.4116C33.3523 29.3945 32.9618 30.3371 32.2668 31.0321C31.5718 31.7271 30.6292 32.1175 29.6464 32.1175Z" fill="black" fill-opacity="0.8"/>
</svg>
