<svg width="42" height="42" viewBox="0 0 42 42" fill="none" xmlns="http://www.w3.org/2000/svg">
<rect width="42" height="42" rx="21" fill="#D9D9D9"/>
<path d="M20.9993 8.82704C24.9572 8.82704 25.4266 8.84176 26.9893 8.91287C28.605 8.98643 30.269 9.35181 31.4462 10.5203C32.6345 11.6997 32.9915 13.3353 33.0657 14.9439C33.1373 16.4949 33.1521 16.9608 33.1521 20.8892C33.1521 24.8175 33.1373 25.2834 33.0657 26.8344C32.9928 28.4295 32.616 30.097 31.4462 31.2581C30.2578 32.4376 28.6112 32.7919 26.9893 32.8655C25.4266 32.9366 24.9572 32.9513 20.9993 32.9513C17.0414 32.9513 16.572 32.9366 15.0094 32.8655C13.4146 32.7931 11.7124 32.4106 10.5524 31.2581C9.37025 30.0847 9.00708 28.4332 8.93296 26.8344C8.86131 25.2834 8.84649 24.8175 8.84649 20.8892C8.84649 16.9608 8.86131 16.4949 8.93296 14.9439C9.00584 13.3549 9.38631 11.6777 10.5524 10.5203C11.7383 9.34322 13.3924 8.98643 15.0094 8.91287C16.572 8.84176 17.0414 8.82704 20.9993 8.82704ZM20.9993 6.17627C16.9735 6.17627 16.4683 6.19343 14.8871 6.26455C12.5956 6.36876 10.3202 7.00142 8.66366 8.64559C7.00096 10.2959 6.36972 12.5494 6.26472 14.8226C6.19308 16.3919 6.17578 16.8934 6.17578 20.8892C6.17578 24.885 6.19308 25.3864 6.26472 26.9558C6.36972 29.2277 7.0096 31.4923 8.66366 33.1328C10.3251 34.7818 12.5993 35.4096 14.8871 35.5138C16.4683 35.5849 16.9735 35.6021 20.9993 35.6021C25.0251 35.6021 25.5304 35.5849 27.1115 35.5138C29.4018 35.4096 31.6797 34.7757 33.335 33.1328C34.9989 31.4812 35.6289 29.2289 35.7339 26.9558C35.8055 25.3864 35.8228 24.885 35.8228 20.8892C35.8228 16.8934 35.8055 16.3919 35.7339 14.8226C35.6289 12.5482 34.9903 10.2885 33.335 8.64559C31.676 6.99897 29.3956 6.36754 27.1115 6.26455C25.5304 6.19343 25.0251 6.17627 20.9993 6.17627Z" fill="black" fill-opacity="0.8"/>
<path d="M20.9966 13.3345C16.7929 13.3345 13.3848 16.7172 13.3848 20.8896C13.3848 25.0619 16.7929 28.4446 20.9966 28.4446C25.2004 28.4446 28.6085 25.0619 28.6085 20.8896C28.6085 16.7172 25.2004 13.3345 20.9966 13.3345ZM20.9966 25.7939C18.2679 25.7939 16.0555 23.598 16.0555 20.8896C16.0555 18.1812 18.2679 15.9852 20.9966 15.9852C23.7254 15.9852 25.9378 18.1812 25.9378 20.8896C25.9378 23.598 23.7254 25.7939 20.9966 25.7939Z" fill="black" fill-opacity="0.8"/>
<path d="M28.9116 14.8006C29.8941 14.8006 30.6905 14.0102 30.6905 13.0351C30.6905 12.06 29.8941 11.2695 28.9116 11.2695C27.9292 11.2695 27.1328 12.06 27.1328 13.0351C27.1328 14.0102 27.9292 14.8006 28.9116 14.8006Z" fill="black" fill-opacity="0.8"/>
</svg>
