<svg width="42" height="42" viewBox="0 0 42 42" fill="none" xmlns="http://www.w3.org/2000/svg">
<rect width="42" height="42" rx="21" fill="#D9D9D9"/>
<path fill-rule="evenodd" clip-rule="evenodd" d="M31.4555 10.485C28.681 7.70803 24.9924 6.1775 21.0629 6.17627C12.9656 6.17627 6.37528 12.7653 6.37158 20.8664C6.37034 23.4556 7.04728 25.983 8.33322 28.2114L6.24805 35.8233L14.0353 33.7802C16.181 34.9512 18.5973 35.5676 21.0555 35.5689H21.0617C29.1578 35.5689 35.7493 28.9786 35.753 20.8775C35.7555 16.953 34.2287 13.2607 31.4555 10.485ZM21.0629 33.0872H21.058C18.8666 33.0872 16.7184 32.4979 14.8432 31.3849L14.3973 31.1206L9.77605 32.3324L11.0101 27.826L10.7198 27.364C9.49687 25.4197 8.85205 23.1727 8.85328 20.8664C8.85575 14.134 14.3343 8.65674 21.0691 8.65674C24.3303 8.65674 27.3963 9.92909 29.7013 12.2366C32.0064 14.5454 33.275 17.6126 33.2738 20.875C33.2701 27.6099 27.7928 33.0872 21.0629 33.0872ZM27.7607 23.9423C27.3938 23.7582 25.589 22.87 25.2518 22.7477C24.9158 22.6254 24.6712 22.5637 24.4254 22.9306C24.1796 23.2974 23.4779 24.1251 23.263 24.3709C23.0493 24.6155 22.8343 24.6464 22.4675 24.4623C22.1006 24.2783 20.9172 23.8916 19.5151 22.6403C18.4243 21.6669 17.6869 20.4649 17.4732 20.0968C17.2595 19.7287 17.4509 19.531 17.6338 19.3482C17.7993 19.1839 18.0006 18.9196 18.1847 18.7046C18.37 18.4922 18.4305 18.339 18.554 18.0932C18.6763 17.8486 18.6158 17.6336 18.5232 17.4496C18.4305 17.2667 17.6968 15.4595 17.3916 14.7245C17.0939 14.008 16.7913 14.1056 16.5652 14.0945C16.3515 14.0834 16.1069 14.0822 15.8611 14.0822C15.6165 14.0822 15.2188 14.1736 14.8828 14.5417C14.5468 14.9098 13.598 15.798 13.598 17.604C13.598 19.4112 14.9136 21.1567 15.0965 21.4013C15.2793 21.6459 17.6844 25.3542 21.3668 26.944C22.2426 27.322 22.927 27.5481 23.4594 27.7173C24.3389 27.9965 25.1394 27.957 25.7719 27.8631C26.4772 27.7581 27.9435 26.9749 28.2499 26.1176C28.5562 25.2603 28.5562 24.5241 28.4636 24.3722C28.3722 24.2177 28.1276 24.1263 27.7607 23.9423Z" fill="black" fill-opacity="0.8"/>
</svg>
