<svg width="101" height="92" viewBox="0 0 101 92" fill="none" xmlns="http://www.w3.org/2000/svg">
<path d="M79.6667 0.166992H21.3333C15.81 0.173608 10.5148 2.37067 6.60925 6.27624C2.70367 10.1818 0.506616 15.477 0.5 21.0003L0.5 71.0003C0.506616 76.5236 2.70367 81.8188 6.60925 85.7244C10.5148 89.63 15.81 91.827 21.3333 91.8337H79.6667C85.19 91.827 90.4852 89.63 94.3907 85.7244C98.2963 81.8188 100.493 76.5236 100.5 71.0003V21.0003C100.493 15.477 98.2963 10.1818 94.3907 6.27624C90.4852 2.37067 85.19 0.173608 79.6667 0.166992ZM21.3333 8.50033H79.6667C82.1616 8.50523 84.598 9.25664 86.6623 10.6578C88.7266 12.059 90.3244 14.0459 91.25 16.3628L59.3417 48.2753C56.9935 50.6141 53.8142 51.9273 50.5 51.9273C47.1858 51.9273 44.0065 50.6141 41.6583 48.2753L9.75 16.3628C10.6756 14.0459 12.2734 12.059 14.3377 10.6578C16.402 9.25664 18.8384 8.50523 21.3333 8.50033ZM79.6667 83.5003H21.3333C18.0181 83.5003 14.8387 82.1834 12.4945 79.8392C10.1503 77.495 8.83333 74.3155 8.83333 71.0003V27.2503L35.7667 54.167C39.6776 58.0681 44.9761 60.2588 50.5 60.2588C56.0239 60.2588 61.3224 58.0681 65.2333 54.167L92.1667 27.2503V71.0003C92.1667 74.3155 90.8497 77.495 88.5055 79.8392C86.1613 82.1834 82.9819 83.5003 79.6667 83.5003Z" fill="#C00404"/>
</svg>
