<svg width="101" height="100" viewBox="0 0 101 100" fill="none" xmlns="http://www.w3.org/2000/svg">
<path d="M50.5 9.6872C63.85 9.6872 65.4333 9.73683 70.7042 9.97669C76.1542 10.2248 81.7667 11.4572 85.7375 15.3984C89.7458 19.3768 90.95 24.8937 91.2 30.3196C91.4417 35.5511 91.4917 37.1226 91.4917 50.373C91.4917 63.6233 91.4417 65.1949 91.2 70.4263C90.9542 75.8067 89.6833 81.4311 85.7375 85.3475C81.7292 89.3259 76.175 90.5211 70.7042 90.7692C65.4333 91.0091 63.85 91.0587 50.5 91.0587C37.15 91.0587 35.5667 91.0091 30.2958 90.7692C24.9167 90.5252 19.175 89.2349 15.2625 85.3475C11.275 81.3897 10.05 75.8191 9.8 70.4263C9.55833 65.1949 9.50833 63.6233 9.50833 50.373C9.50833 37.1226 9.55833 35.5511 9.8 30.3196C10.0458 24.9599 11.3292 19.3024 15.2625 15.3984C19.2625 11.4283 24.8417 10.2248 30.2958 9.97669C35.5667 9.73683 37.15 9.6872 50.5 9.6872ZM50.5 0.746094C36.9208 0.746094 35.2167 0.803992 29.8833 1.04385C22.1542 1.39538 14.4792 3.52933 8.89167 9.07514C3.28333 14.6416 1.15417 22.2428 0.8 29.9101C0.558333 35.2037 0.5 36.8951 0.5 50.373C0.5 63.8508 0.558333 65.5422 0.8 70.8358C1.15417 78.499 3.3125 86.1374 8.89167 91.6708C14.4958 97.2331 22.1667 99.3505 29.8833 99.7021C35.2167 99.9419 36.9208 99.9998 50.5 99.9998C64.0792 99.9998 65.7833 99.9419 71.1167 99.7021C78.8417 99.3505 86.525 97.2124 92.1083 91.6708C97.7208 86.1002 99.8458 78.5031 100.2 70.8358C100.442 65.5422 100.5 63.8508 100.5 50.373C100.5 36.8951 100.442 35.2037 100.2 29.9101C99.8458 22.2387 97.6917 14.6168 92.1083 9.07514C86.5125 3.52106 78.8208 1.39124 71.1167 1.04385C65.7833 0.803992 64.0792 0.746094 50.5 0.746094Z" fill="#C00404"/>
<path d="M50.4992 24.8896C36.3201 24.8896 24.8242 36.2997 24.8242 50.373C24.8242 64.4464 36.3201 75.8565 50.4992 75.8565C64.6784 75.8565 76.1742 64.4464 76.1742 50.373C76.1742 36.2997 64.6784 24.8896 50.4992 24.8896ZM50.4992 66.9153C41.2951 66.9153 33.8326 59.5085 33.8326 50.373C33.8326 41.2376 41.2951 33.8308 50.4992 33.8308C59.7034 33.8308 67.1659 41.2376 67.1659 50.373C67.1659 59.5085 59.7034 66.9153 50.4992 66.9153Z" fill="#C00404"/>
<path d="M77.1914 29.8362C80.5051 29.8362 83.1914 27.17 83.1914 23.881C83.1914 20.592 80.5051 17.9258 77.1914 17.9258C73.8777 17.9258 71.1914 20.592 71.1914 23.881C71.1914 27.17 73.8777 29.8362 77.1914 29.8362Z" fill="#C00404"/>
</svg>
